<?xml version="1.0" encoding="UTF-8" standalone="no"?><svg xmlns="http://www.w3.org/2000/svg" xmlns:xlink="http://www.w3.org/1999/xlink" contentScriptType="application/ecmascript" contentStyleType="text/css" height="748px" preserveAspectRatio="none" style="width:1553px;height:748px;" version="1.1" viewBox="0 0 1553 748" width="1553px" zoomAndPan="magnify"><defs><filter height="300%" id="fkdvi55" width="300%" x="-1" y="-1"><feGaussianBlur result="blurOut" stdDeviation="2.0"/><feColorMatrix in="blurOut" result="blurOut2" type="matrix" values="0 0 0 0 0 0 0 0 0 0 0 0 0 0 0 0 0 0 .4 0"/><feOffset dx="4.0" dy="4.0" in="blurOut2" result="blurOut3"/><feBlend in="SourceGraphic" in2="blurOut3" mode="normal"/></filter></defs><g><!--class EndpointManager--><rect fill="#F8F8F8" filter="url(#fkdvi55)" height="104.0391" style="stroke: #383838; stroke-width: 1.5;" width="101" x="1224" y="112"/><text fill="#000000" font-family="Comic Sans MS" font-size="12" lengthAdjust="spacingAndGlyphs" textLength="95" x="1227" y="130.2246">EndpointManager</text><line style="stroke: #383838; stroke-width: 1.5;" x1="1225" x2="1324" y1="138.7227" y2="138.7227"/><text fill="#000000" font-family="Comic Sans MS" font-size="11" lengthAdjust="spacingAndGlyphs" textLength="27" x="1230" y="154.8452">myId</text><text fill="#000000" font-family="Comic Sans MS" font-size="11" lengthAdjust="spacingAndGlyphs" textLength="60" x="1230" y="170.1743">myEndpoint</text><text fill="#000000" font-family="Comic Sans MS" font-size="11" lengthAdjust="spacingAndGlyphs" textLength="68" x="1230" y="185.5034">myNeighbors</text><text fill="#000000" font-family="Comic Sans MS" font-size="11" lengthAdjust="spacingAndGlyphs" textLength="49" x="1230" y="200.8325">endpoints</text><line style="stroke: #383838; stroke-width: 1.5;" x1="1225" x2="1324" y1="208.0391" y2="208.0391"/><!--class ServerLogic--><rect fill="#F8F8F8" filter="url(#fkdvi55)" height="73.3809" style="stroke: #383838; stroke-width: 1.5;" width="158" x="1030.25" y="127.5"/><text fill="#000000" font-family="Comic Sans MS" font-size="12" lengthAdjust="spacingAndGlyphs" textLength="68" x="1075.25" y="145.7246">ServerLogic</text><line style="stroke: #383838; stroke-width: 1.5;" x1="1031.25" x2="1187.25" y1="154.2227" y2="154.2227"/><line style="stroke: #383838; stroke-width: 1.5;" x1="1031.25" x2="1187.25" y1="162.2227" y2="162.2227"/><text fill="#000000" font-family="Comic Sans MS" font-size="11" lengthAdjust="spacingAndGlyphs" textLength="84" x="1036.25" y="178.3452">onReceiveData()</text><text fill="#000000" font-family="Comic Sans MS" font-size="11" lengthAdjust="spacingAndGlyphs" textLength="146" x="1036.25" y="193.6743">_runAlgorithm(data, socket)</text><!--class Server--><rect fill="#F8F8F8" filter="url(#fkdvi55)" height="73.3809" style="stroke: #383838; stroke-width: 1.5;" width="91" x="551" y="127.5"/><text fill="#000000" font-family="Comic Sans MS" font-size="12" lengthAdjust="spacingAndGlyphs" textLength="40" x="576.5" y="145.7246">Server</text><line style="stroke: #383838; stroke-width: 1.5;" x1="552" x2="641" y1="154.2227" y2="154.2227"/><line style="stroke: #383838; stroke-width: 1.5;" x1="552" x2="641" y1="162.2227" y2="162.2227"/><text fill="#000000" font-family="Comic Sans MS" font-size="11" lengthAdjust="spacingAndGlyphs" textLength="79" x="557" y="178.3452">listen(callback)</text><text fill="#000000" font-family="Comic Sans MS" font-size="11" lengthAdjust="spacingAndGlyphs" textLength="34" x="557" y="193.6743">close()</text><!--class VectorClock--><rect fill="#F8F8F8" filter="url(#fkdvi55)" height="150.0264" style="stroke: #383838; stroke-width: 1.5;" width="164" x="1027.25" y="440"/><text fill="#000000" font-family="Comic Sans MS" font-size="12" lengthAdjust="spacingAndGlyphs" textLength="67" x="1075.75" y="458.2246">VectorClock</text><line style="stroke: #383838; stroke-width: 1.5;" x1="1028.25" x2="1190.25" y1="466.7227" y2="466.7227"/><text fill="#000000" font-family="Comic Sans MS" font-size="11" lengthAdjust="spacingAndGlyphs" textLength="27" x="1033.25" y="482.8452">myId</text><text fill="#000000" font-family="Comic Sans MS" font-size="11" lengthAdjust="spacingAndGlyphs" textLength="152" x="1033.25" y="498.1743">vector : VectorTimeElement[]</text><line style="stroke: #383838; stroke-width: 1.5;" x1="1028.25" x2="1190.25" y1="505.3809" y2="505.3809"/><text fill="#000000" font-family="Comic Sans MS" font-size="11" lengthAdjust="spacingAndGlyphs" textLength="96" x="1033.25" y="521.5034">constructor(myId)</text><text fill="#000000" font-family="Comic Sans MS" font-size="11" lengthAdjust="spacingAndGlyphs" textLength="28" x="1033.25" y="536.8325">tick()</text><text fill="#000000" font-family="Comic Sans MS" font-size="11" lengthAdjust="spacingAndGlyphs" textLength="70" x="1033.25" y="552.1616">update(clock)</text><text fill="#000000" font-family="Comic Sans MS" font-size="11" lengthAdjust="spacingAndGlyphs" textLength="66" x="1033.25" y="567.4907">getMyTime()</text><text fill="#000000" font-family="Comic Sans MS" font-size="11" lengthAdjust="spacingAndGlyphs" textLength="77" x="1033.25" y="582.8198">getTimeFor(id)</text><!--class ElectionNode--><rect fill="#F8F8F8" filter="url(#fkdvi55)" height="104.0391" style="stroke: #383838; stroke-width: 1.5;" width="232" x="284.25" y="276"/><text fill="#000000" font-family="Comic Sans MS" font-size="12" lengthAdjust="spacingAndGlyphs" textLength="74" x="363.25" y="294.2246">ElectionNode</text><line style="stroke: #383838; stroke-width: 1.5;" x1="285.25" x2="515.25" y1="302.7227" y2="302.7227"/><line style="stroke: #383838; stroke-width: 1.5;" x1="285.25" x2="515.25" y1="310.7227" y2="310.7227"/><text fill="#000000" font-family="Comic Sans MS" font-size="11" lengthAdjust="spacingAndGlyphs" textLength="146" x="290.25" y="326.8452">_runAlgorithm(data, socket)</text><text fill="#000000" font-family="Comic Sans MS" font-size="11" lengthAdjust="spacingAndGlyphs" textLength="217" x="290.25" y="342.1743">async sendCampaignMsgTo(neighbor, msg)</text><text fill="#000000" font-family="Comic Sans MS" font-size="11" lengthAdjust="spacingAndGlyphs" textLength="220" x="290.25" y="357.5034">async sendChooseMeMsgTo(neighbor, msg)</text><text fill="#000000" font-family="Comic Sans MS" font-size="11" lengthAdjust="spacingAndGlyphs" textLength="208" x="290.25" y="372.8325">async sendSnapshotResponse(node, msg)</text><!--class ObserverNode--><rect fill="#F8F8F8" filter="url(#fkdvi55)" height="42.7227" style="stroke: #383838; stroke-width: 1.5;" width="91" x="1453" y="306.5"/><text fill="#000000" font-family="Comic Sans MS" font-size="12" lengthAdjust="spacingAndGlyphs" textLength="85" x="1456" y="324.7246">ObserverNode</text><line style="stroke: #383838; stroke-width: 1.5;" x1="1454" x2="1543" y1="333.2227" y2="333.2227"/><line style="stroke: #383838; stroke-width: 1.5;" x1="1454" x2="1543" y1="341.2227" y2="341.2227"/><!--class Voter--><rect fill="#F8F8F8" filter="url(#fkdvi55)" height="73.3809" style="stroke: #383838; stroke-width: 1.5;" width="328" x="97.25" y="478.5"/><text fill="#000000" font-family="Comic Sans MS" font-size="12" lengthAdjust="spacingAndGlyphs" textLength="33" x="244.75" y="496.7246">Voter</text><line style="stroke: #383838; stroke-width: 1.5;" x1="98.25" x2="424.25" y1="505.2227" y2="505.2227"/><line style="stroke: #383838; stroke-width: 1.5;" x1="98.25" x2="424.25" y1="513.2227" y2="513.2227"/><text fill="#000000" font-family="Comic Sans MS" font-size="11" lengthAdjust="spacingAndGlyphs" textLength="316" x="103.25" y="529.3452">onNewIncomingChooseMeMsg(candidateId, currentRumorId)</text><text fill="#000000" font-family="Comic Sans MS" font-size="11" lengthAdjust="spacingAndGlyphs" textLength="223" x="103.25" y="544.6743">onNewIncomingCampaignMsg(candidateId)</text><!--class Candidate--><rect fill="#F8F8F8" filter="url(#fkdvi55)" height="58.0518" style="stroke: #383838; stroke-width: 1.5;" width="158" x="460.25" y="486"/><text fill="#000000" font-family="Comic Sans MS" font-size="12" lengthAdjust="spacingAndGlyphs" textLength="55" x="511.75" y="504.2246">Candidate</text><line style="stroke: #383838; stroke-width: 1.5;" x1="461.25" x2="617.25" y1="512.7227" y2="512.7227"/><line style="stroke: #383838; stroke-width: 1.5;" x1="461.25" x2="617.25" y1="520.7227" y2="520.7227"/><text fill="#000000" font-family="Comic Sans MS" font-size="11" lengthAdjust="spacingAndGlyphs" textLength="146" x="466.25" y="536.8452">_runAlgorithm(data, socket)</text><!--class SnapshotReceiver--><rect fill="#F8F8F8" filter="url(#fkdvi55)" height="58.0518" style="stroke: #383838; stroke-width: 1.5;" width="203" x="853" y="299"/><text fill="#000000" font-family="Comic Sans MS" font-size="12" lengthAdjust="spacingAndGlyphs" textLength="101" x="904" y="317.2246">SnapshotReceiver</text><line style="stroke: #383838; stroke-width: 1.5;" x1="854" x2="1055" y1="325.7227" y2="325.7227"/><line style="stroke: #383838; stroke-width: 1.5;" x1="854" x2="1055" y1="333.7227" y2="333.7227"/><text fill="#000000" font-family="Comic Sans MS" font-size="11" lengthAdjust="spacingAndGlyphs" textLength="191" x="859" y="349.8452">async processIncomingMessage(msg)</text><!--class SnapshotAlgorithm--><rect fill="#F8F8F8" filter="url(#fkdvi55)" height="73.3809" style="stroke: #383838; stroke-width: 1.5;" width="255" x="1163" y="291.5"/><text fill="#000000" font-family="Comic Sans MS" font-size="12" lengthAdjust="spacingAndGlyphs" textLength="106" x="1237.5" y="309.7246">SnapshotAlgorithm</text><line style="stroke: #383838; stroke-width: 1.5;" x1="1164" x2="1417" y1="318.2227" y2="318.2227"/><line style="stroke: #383838; stroke-width: 1.5;" x1="1164" x2="1417" y1="326.2227" y2="326.2227"/><text fill="#000000" font-family="Comic Sans MS" font-size="11" lengthAdjust="spacingAndGlyphs" textLength="111" x="1169" y="342.3452">async takeSnapshot()</text><text fill="#000000" font-family="Comic Sans MS" font-size="11" lengthAdjust="spacingAndGlyphs" textLength="243" x="1169" y="357.6743">async processIncomingMessage(msg, senderId)</text><!--class RumorAlgorithm--><rect fill="#F8F8F8" filter="url(#fkdvi55)" height="73.3809" style="stroke: #383838; stroke-width: 1.5;" width="266" x="551.25" y="291.5"/><text fill="#000000" font-family="Comic Sans MS" font-size="12" lengthAdjust="spacingAndGlyphs" textLength="90" x="639.25" y="309.7246">RumorAlgorithm</text><line style="stroke: #383838; stroke-width: 1.5;" x1="552.25" x2="816.25" y1="318.2227" y2="318.2227"/><line style="stroke: #383838; stroke-width: 1.5;" x1="552.25" x2="816.25" y1="326.2227" y2="326.2227"/><text fill="#000000" font-family="Comic Sans MS" font-size="11" lengthAdjust="spacingAndGlyphs" textLength="192" x="557.25" y="342.3452">async initiateRumorDistribution(msg)</text><text fill="#000000" font-family="Comic Sans MS" font-size="11" lengthAdjust="spacingAndGlyphs" textLength="254" x="557.25" y="357.6743">async processIncomingMessage(msg, neighborId)</text><!--class EchoAlgorithm--><rect fill="#F8F8F8" filter="url(#fkdvi55)" height="73.3809" style="stroke: #383838; stroke-width: 1.5;" width="243" x="6" y="291.5"/><text fill="#000000" font-family="Comic Sans MS" font-size="12" lengthAdjust="spacingAndGlyphs" textLength="81" x="87" y="309.7246">EchoAlgorithm</text><line style="stroke: #383838; stroke-width: 1.5;" x1="7" x2="248" y1="318.2227" y2="318.2227"/><line style="stroke: #383838; stroke-width: 1.5;" x1="7" x2="248" y1="326.2227" y2="326.2227"/><text fill="#000000" font-family="Comic Sans MS" font-size="11" lengthAdjust="spacingAndGlyphs" textLength="224" x="12" y="342.3452">async initEcho(content, onEchoDistributed)</text><text fill="#000000" font-family="Comic Sans MS" font-size="11" lengthAdjust="spacingAndGlyphs" textLength="231" x="12" y="357.6743">async processIncomingMsg(msg, neighborId)</text><!--class EchoStates--><rect fill="#F8F8F8" filter="url(#fkdvi55)" height="42.7227" style="stroke: #383838; stroke-width: 1.5;" width="71" x="92" y="142.5"/><text fill="#000000" font-family="Comic Sans MS" font-size="12" lengthAdjust="spacingAndGlyphs" textLength="65" x="95" y="160.7246">EchoStates</text><line style="stroke: #383838; stroke-width: 1.5;" x1="93" x2="162" y1="169.2227" y2="169.2227"/><line style="stroke: #383838; stroke-width: 1.5;" x1="93" x2="162" y1="177.2227" y2="177.2227"/><!--class EndpointParser--><rect fill="#F8F8F8" filter="url(#fkdvi55)" height="42.7227" style="stroke: #383838; stroke-width: 1.5;" width="90" x="1166.25" y="8.5"/><text fill="#000000" font-family="Comic Sans MS" font-size="12" lengthAdjust="spacingAndGlyphs" textLength="84" x="1169.25" y="26.7246">EndpointParser</text><line style="stroke: #383838; stroke-width: 1.5;" x1="1167.25" x2="1255.25" y1="35.2227" y2="35.2227"/><line style="stroke: #383838; stroke-width: 1.5;" x1="1167.25" x2="1255.25" y1="43.2227" y2="43.2227"/><!--class GraphvizParser--><rect fill="#F8F8F8" filter="url(#fkdvi55)" height="42.7227" style="stroke: #383838; stroke-width: 1.5;" width="91" x="1292" y="8.5"/><text fill="#000000" font-family="Comic Sans MS" font-size="12" lengthAdjust="spacingAndGlyphs" textLength="85" x="1295" y="26.7246">GraphvizParser</text><line style="stroke: #383838; stroke-width: 1.5;" x1="1293" x2="1382" y1="35.2227" y2="35.2227"/><line style="stroke: #383838; stroke-width: 1.5;" x1="1293" x2="1382" y1="43.2227" y2="43.2227"/><!--class ConfidenceLevel--><rect fill="#F8F8F8" filter="url(#fkdvi55)" height="88.71" style="stroke: #383838; stroke-width: 1.5;" width="254" x="134.25" y="650.5"/><text fill="#000000" font-family="Comic Sans MS" font-size="12" lengthAdjust="spacingAndGlyphs" textLength="91" x="215.75" y="668.7246">ConfidenceLevel</text><line style="stroke: #383838; stroke-width: 1.5;" x1="135.25" x2="387.25" y1="677.2227" y2="677.2227"/><line style="stroke: #383838; stroke-width: 1.5;" x1="135.25" x2="387.25" y1="685.2227" y2="685.2227"/><text fill="#000000" font-family="Comic Sans MS" font-size="11" lengthAdjust="spacingAndGlyphs" textLength="121" x="140.25" y="701.3452">isFavorite(candidateId)</text><text fill="#000000" font-family="Comic Sans MS" font-size="11" lengthAdjust="spacingAndGlyphs" textLength="242" x="140.25" y="716.6743">updateLevelOnNewChooseMeMsg(candidateId)</text><text fill="#000000" font-family="Comic Sans MS" font-size="11" lengthAdjust="spacingAndGlyphs" textLength="218" x="140.25" y="732.0034">updateLevelOnNewCampaign(candidateId)</text><path d="M1188.53,164 C1200.25,164 1211.97,164 1223.69,164 " fill="none" style="stroke: #383838; stroke-width: 1.0;"/><path d="M641.588,164 C771.139,164 900.69,164 1030.24,164 " fill="none" style="stroke: #383838; stroke-width: 1.0;"/><path d="M1109.25,200.709 C1109.25,256.649 1109.25,366.141 1109.25,439.701 " fill="none" style="stroke: #383838; stroke-width: 1.0;"/><path d="M1010,178.696 C894.221,195.918 697.679,229.025 533.25,276 C527.662,277.596 521.979,279.329 516.266,281.161 " fill="none" style="stroke: #383838; stroke-width: 1.0;"/><polygon fill="none" points="1009.16,171.746,1029.96,175.766,1011.19,185.597,1009.16,171.746" style="stroke: #383838; stroke-width: 1.0;"/><path d="M1190.13,209.229 C1195.52,211.649 1200.93,213.932 1206.25,216 C1303.92,253.959 1340.6,229.005 1434.25,276 C1449.87,283.838 1465.25,295.917 1477.02,306.353 " fill="none" style="stroke: #383838; stroke-width: 1.0;"/><polygon fill="none" points="1187,215.494,1171.94,200.588,1193.01,202.848,1187,215.494" style="stroke: #383838; stroke-width: 1.0;"/><path d="M349.639,396.36 C328.785,424.115 305.476,455.137 288.033,478.354 " fill="none" style="stroke: #383838; stroke-width: 1.0;"/><polygon fill="none" points="344.289,391.827,361.9,380.042,355.482,400.236,344.289,391.827" style="stroke: #383838; stroke-width: 1.0;"/><path d="M450.746,396.206 C473.945,427.083 500.205,462.034 518.054,485.79 " fill="none" style="stroke: #383838; stroke-width: 1.0;"/><polygon fill="none" points="445.018,400.236,438.6,380.042,456.211,391.827,445.018,400.236" style="stroke: #383838; stroke-width: 1.0;"/><path d="M478.403,275.902 C500.831,263.644 525.953,252.317 550.75,246 C665.313,216.815 702.775,214.595 816.75,246 C854.13,256.3 891.601,279.723 917.964,298.91 " fill="none" style="stroke: #383838; stroke-width: 1.0;"/><path d="M1417.81,328 C1429.44,328 1441.06,328 1452.69,328 " fill="none" style="stroke: #383838; stroke-width: 1.0;"/><path d="M516.457,328 C528.036,328 539.616,328 551.195,328 " fill="none" style="stroke: #383838; stroke-width: 1.0;"/><path d="M248.554,328 C260.405,328 272.256,328 284.108,328 " fill="none" style="stroke: #383838; stroke-width: 1.0;"/><path d="M127.25,185.517 C127.25,212.081 127.25,258.808 127.25,291.26 " fill="none" style="stroke: #383838; stroke-width: 1.0;"/><path d="M1221.09,51.625 C1228.78,67.722 1239.79,90.799 1249.8,111.776 " fill="none" style="stroke: #383838; stroke-width: 1.0;"/><path d="M1327.41,51.625 C1319.72,67.722 1308.71,90.799 1298.7,111.776 " fill="none" style="stroke: #383838; stroke-width: 1.0;"/><path d="M261.25,551.593 C261.25,580.001 261.25,619.927 261.25,650.2782 " fill="none" style="stroke: #383838; stroke-width: 1.0;"/></g></svg>