<?xml version="1.0" encoding="UTF-8" standalone="yes"?><svg xmlns="http://www.w3.org/2000/svg" xmlns:xlink="http://www.w3.org/1999/xlink" height="343px" style="width:494px;height:343px;" version="1.1" viewBox="0 0 494 343" width="494px"><defs><filter height="300%" id="f1" width="300%" x="-1" y="-1"><feGaussianBlur result="blurOut" stdDeviation="2.0"/><feColorMatrix in="blurOut" result="blurOut2" type="matrix" values="0 0 0 0 0 0 0 0 0 0 0 0 0 0 0 0 0 0 .4 0"/><feOffset dx="4.0" dy="4.0" in="blurOut2" result="blurOut3"/><feBlend in="SourceGraphic" in2="blurOut3" mode="normal"/></filter></defs><g><rect fill="#F8F8F8" filter="url(#f1)" height="104.0391" style="stroke: #383838; stroke-width: 1.5;" width="101" x="326" y="112"/><text fill="#000000" font-family="Comic Sans MS" font-size="12" lengthAdjust="spacingAndGlyphs" textLength="95" x="329" y="130.2246">EndpointManager</text><line style="stroke: #383838; stroke-width: 1.5;" x1="327" x2="426" y1="138.7227" y2="138.7227"/><text fill="#000000" font-family="Comic Sans MS" font-size="11" lengthAdjust="spacingAndGlyphs" textLength="27" x="332" y="154.8452">myId</text><text fill="#000000" font-family="Comic Sans MS" font-size="11" lengthAdjust="spacingAndGlyphs" textLength="60" x="332" y="170.1743">myEndpoint</text><text fill="#000000" font-family="Comic Sans MS" font-size="11" lengthAdjust="spacingAndGlyphs" textLength="68" x="332" y="185.5034">myNeighbors</text><text fill="#000000" font-family="Comic Sans MS" font-size="11" lengthAdjust="spacingAndGlyphs" textLength="49" x="332" y="200.8325">endpoints</text><line style="stroke: #383838; stroke-width: 1.5;" x1="327" x2="426" y1="208.0391" y2="208.0391"/><rect fill="#F8F8F8" filter="url(#f1)" height="73.3809" style="stroke: #383838; stroke-width: 1.5;" width="158" x="132.25" y="127.5"/><text fill="#000000" font-family="Comic Sans MS" font-size="12" lengthAdjust="spacingAndGlyphs" textLength="68" x="177.25" y="145.7246">ServerLogic</text><line style="stroke: #383838; stroke-width: 1.5;" x1="133.25" x2="289.25" y1="154.2227" y2="154.2227"/><line style="stroke: #383838; stroke-width: 1.5;" x1="133.25" x2="289.25" y1="162.2227" y2="162.2227"/><text fill="#000000" font-family="Comic Sans MS" font-size="11" lengthAdjust="spacingAndGlyphs" textLength="84" x="138.25" y="178.3452">onReceiveData()</text><text fill="#000000" font-family="Comic Sans MS" font-size="11" lengthAdjust="spacingAndGlyphs" textLength="146" x="138.25" y="193.6743">_runAlgorithm(data, socket)</text><rect fill="#F8F8F8" filter="url(#f1)" height="73.3809" style="stroke: #383838; stroke-width: 1.5;" width="91" x="6" y="127.5"/><text fill="#000000" font-family="Comic Sans MS" font-size="12" lengthAdjust="spacingAndGlyphs" textLength="40" x="31.5" y="145.7246">Server</text><line style="stroke: #383838; stroke-width: 1.5;" x1="7" x2="96" y1="154.2227" y2="154.2227"/><line style="stroke: #383838; stroke-width: 1.5;" x1="7" x2="96" y1="162.2227" y2="162.2227"/><text fill="#000000" font-family="Comic Sans MS" font-size="11" lengthAdjust="spacingAndGlyphs" textLength="79" x="12" y="178.3452">listen(callback)</text><text fill="#000000" font-family="Comic Sans MS" font-size="11" lengthAdjust="spacingAndGlyphs" textLength="34" x="12" y="193.6743">close()</text><rect fill="#F8F8F8" filter="url(#f1)" height="58.0518" style="stroke: #383838; stroke-width: 1.5;" width="158" x="36.25" y="276"/><text fill="#000000" font-family="Comic Sans MS" font-size="12" lengthAdjust="spacingAndGlyphs" textLength="68" x="81.25" y="294.2246">HelloServer</text><line style="stroke: #383838; stroke-width: 1.5;" x1="37.25" x2="193.25" y1="302.7227" y2="302.7227"/><line style="stroke: #383838; stroke-width: 1.5;" x1="37.25" x2="193.25" y1="310.7227" y2="310.7227"/><text fill="#000000" font-family="Comic Sans MS" font-size="11" lengthAdjust="spacingAndGlyphs" textLength="146" x="42.25" y="326.8452">_runAlgorithm(data, socket)</text><rect fill="#F8F8F8" filter="url(#f1)" height="58.0518" style="stroke: #383838; stroke-width: 1.5;" width="158" x="229.25" y="276"/><text fill="#000000" font-family="Comic Sans MS" font-size="12" lengthAdjust="spacingAndGlyphs" textLength="75" x="270.75" y="294.2246">RumorServer</text><line style="stroke: #383838; stroke-width: 1.5;" x1="230.25" x2="386.25" y1="302.7227" y2="302.7227"/><line style="stroke: #383838; stroke-width: 1.5;" x1="230.25" x2="386.25" y1="310.7227" y2="310.7227"/><text fill="#000000" font-family="Comic Sans MS" font-size="11" lengthAdjust="spacingAndGlyphs" textLength="146" x="235.25" y="326.8452">_runAlgorithm(data, socket)</text><rect fill="#F8F8F8" filter="url(#f1)" height="42.7227" style="stroke: #383838; stroke-width: 1.5;" width="90" x="268.25" y="8.5"/><text fill="#000000" font-family="Comic Sans MS" font-size="12" lengthAdjust="spacingAndGlyphs" textLength="84" x="271.25" y="26.7246">EndpointParser</text><line style="stroke: #383838; stroke-width: 1.5;" x1="269.25" x2="357.25" y1="35.2227" y2="35.2227"/><line style="stroke: #383838; stroke-width: 1.5;" x1="269.25" x2="357.25" y1="43.2227" y2="43.2227"/><rect fill="#F8F8F8" filter="url(#f1)" height="42.7227" style="stroke: #383838; stroke-width: 1.5;" width="91" x="394" y="8.5"/><text fill="#000000" font-family="Comic Sans MS" font-size="12" lengthAdjust="spacingAndGlyphs" textLength="85" x="397" y="26.7246">GraphvizParser</text><line style="stroke: #383838; stroke-width: 1.5;" x1="395" x2="484" y1="35.2227" y2="35.2227"/><line style="stroke: #383838; stroke-width: 1.5;" x1="395" x2="484" y1="43.2227" y2="43.2227"/><path d="M290.527,164 C302.247,164 313.967,164 325.687,164 " fill="none" style="stroke: #383838; stroke-width: 1.0;"/><path d="M96.5625,164 C108.36,164 120.157,164 131.954,164 " fill="none" style="stroke: #383838; stroke-width: 1.0;"/><path d="M174.987,217.505 C161.321,237.2924 146.303,259.0374 134.744,275.7745 " fill="none" style="stroke: #383838; stroke-width: 1.0;"/><polygon fill="none" points="169.402,213.275,186.528,200.796,180.922,221.231,169.402,213.275" style="stroke: #383838; stroke-width: 1.0;"/><path d="M247.681,217.206 C261.545,237.0726 276.814,258.9528 288.553,275.7745 " fill="none" style="stroke: #383838; stroke-width: 1.0;"/><polygon fill="none" points="241.935,221.203,236.23,200.796,253.416,213.191,241.935,221.203" style="stroke: #383838; stroke-width: 1.0;"/><path d="M323.094,51.625 C330.776,67.722 341.79,90.799 351.802,111.776 " fill="none" style="stroke: #383838; stroke-width: 1.0;"/><path d="M429.406,51.625 C421.724,67.722 410.71,90.799 400.698,111.776 " fill="none" style="stroke: #383838; stroke-width: 1.0;"/></g></svg>