<?xml version="1.0" encoding="UTF-8" standalone="no"?><svg xmlns="http://www.w3.org/2000/svg" xmlns:xlink="http://www.w3.org/1999/xlink" contentScriptType="application/ecmascript" contentStyleType="text/css" height="553px" preserveAspectRatio="none" style="width:502px;height:553px;" version="1.1" viewBox="0 0 502 553" width="502px" zoomAndPan="magnify"><defs><filter height="300%" id="f278qpx" width="300%" x="-1" y="-1"><feGaussianBlur result="blurOut" stdDeviation="2.0"/><feColorMatrix in="blurOut" result="blurOut2" type="matrix" values="0 0 0 0 0 0 0 0 0 0 0 0 0 0 0 0 0 0 .4 0"/><feOffset dx="4.0" dy="4.0" in="blurOut2" result="blurOut3"/><feBlend in="SourceGraphic" in2="blurOut3" mode="normal"/></filter></defs><g><!--class EndpointManager--><rect fill="#F8F8F8" filter="url(#f278qpx)" height="104.0391" style="stroke: #383838; stroke-width: 1.5;" width="101" x="334.75" y="112"/><text fill="#000000" font-family="Comic Sans MS" font-size="12" lengthAdjust="spacingAndGlyphs" textLength="95" x="337.75" y="130.2246">EndpointManager</text><line style="stroke: #383838; stroke-width: 1.5;" x1="335.75" x2="434.75" y1="138.7227" y2="138.7227"/><text fill="#000000" font-family="Comic Sans MS" font-size="11" lengthAdjust="spacingAndGlyphs" textLength="27" x="340.75" y="154.8452">myId</text><text fill="#000000" font-family="Comic Sans MS" font-size="11" lengthAdjust="spacingAndGlyphs" textLength="60" x="340.75" y="170.1743">myEndpoint</text><text fill="#000000" font-family="Comic Sans MS" font-size="11" lengthAdjust="spacingAndGlyphs" textLength="68" x="340.75" y="185.5034">myNeighbors</text><text fill="#000000" font-family="Comic Sans MS" font-size="11" lengthAdjust="spacingAndGlyphs" textLength="49" x="340.75" y="200.8325">endpoints</text><line style="stroke: #383838; stroke-width: 1.5;" x1="335.75" x2="434.75" y1="208.0391" y2="208.0391"/><!--class ServerLogic--><rect fill="#F8F8F8" filter="url(#f278qpx)" height="73.3809" style="stroke: #383838; stroke-width: 1.5;" width="158" x="141" y="127.5"/><text fill="#000000" font-family="Comic Sans MS" font-size="12" lengthAdjust="spacingAndGlyphs" textLength="68" x="186" y="145.7246">ServerLogic</text><line style="stroke: #383838; stroke-width: 1.5;" x1="142" x2="298" y1="154.2227" y2="154.2227"/><line style="stroke: #383838; stroke-width: 1.5;" x1="142" x2="298" y1="162.2227" y2="162.2227"/><text fill="#000000" font-family="Comic Sans MS" font-size="11" lengthAdjust="spacingAndGlyphs" textLength="84" x="147" y="178.3452">onReceiveData()</text><text fill="#000000" font-family="Comic Sans MS" font-size="11" lengthAdjust="spacingAndGlyphs" textLength="146" x="147" y="193.6743">_runAlgorithm(data, socket)</text><!--class Server--><rect fill="#F8F8F8" filter="url(#f278qpx)" height="73.3809" style="stroke: #383838; stroke-width: 1.5;" width="91" x="14.75" y="127.5"/><text fill="#000000" font-family="Comic Sans MS" font-size="12" lengthAdjust="spacingAndGlyphs" textLength="40" x="40.25" y="145.7246">Server</text><line style="stroke: #383838; stroke-width: 1.5;" x1="15.75" x2="104.75" y1="154.2227" y2="154.2227"/><line style="stroke: #383838; stroke-width: 1.5;" x1="15.75" x2="104.75" y1="162.2227" y2="162.2227"/><text fill="#000000" font-family="Comic Sans MS" font-size="11" lengthAdjust="spacingAndGlyphs" textLength="79" x="20.75" y="178.3452">listen(callback)</text><text fill="#000000" font-family="Comic Sans MS" font-size="11" lengthAdjust="spacingAndGlyphs" textLength="34" x="20.75" y="193.6743">close()</text><!--class VectorClock--><rect fill="#F8F8F8" filter="url(#f278qpx)" height="150.0264" style="stroke: #383838; stroke-width: 1.5;" width="164" x="6" y="394"/><text fill="#000000" font-family="Comic Sans MS" font-size="12" lengthAdjust="spacingAndGlyphs" textLength="67" x="54.5" y="412.2246">VectorClock</text><line style="stroke: #383838; stroke-width: 1.5;" x1="7" x2="169" y1="420.7227" y2="420.7227"/><text fill="#000000" font-family="Comic Sans MS" font-size="11" lengthAdjust="spacingAndGlyphs" textLength="27" x="12" y="436.8452">myId</text><text fill="#000000" font-family="Comic Sans MS" font-size="11" lengthAdjust="spacingAndGlyphs" textLength="152" x="12" y="452.1743">vector : VectorTimeElement[]</text><line style="stroke: #383838; stroke-width: 1.5;" x1="7" x2="169" y1="459.3809" y2="459.3809"/><text fill="#000000" font-family="Comic Sans MS" font-size="11" lengthAdjust="spacingAndGlyphs" textLength="96" x="12" y="475.5034">constructor(myId)</text><text fill="#000000" font-family="Comic Sans MS" font-size="11" lengthAdjust="spacingAndGlyphs" textLength="28" x="12" y="490.8325">tick()</text><text fill="#000000" font-family="Comic Sans MS" font-size="11" lengthAdjust="spacingAndGlyphs" textLength="70" x="12" y="506.1616">update(clock)</text><text fill="#000000" font-family="Comic Sans MS" font-size="11" lengthAdjust="spacingAndGlyphs" textLength="66" x="12" y="521.4907">getMyTime()</text><text fill="#000000" font-family="Comic Sans MS" font-size="11" lengthAdjust="spacingAndGlyphs" textLength="77" x="12" y="536.8198">getTimeFor(id)</text><!--class HelloServer--><rect fill="#F8F8F8" filter="url(#f278qpx)" height="58.0518" style="stroke: #383838; stroke-width: 1.5;" width="158" x="141" y="276"/><text fill="#000000" font-family="Comic Sans MS" font-size="12" lengthAdjust="spacingAndGlyphs" textLength="68" x="186" y="294.2246">HelloServer</text><line style="stroke: #383838; stroke-width: 1.5;" x1="142" x2="298" y1="302.7227" y2="302.7227"/><line style="stroke: #383838; stroke-width: 1.5;" x1="142" x2="298" y1="310.7227" y2="310.7227"/><text fill="#000000" font-family="Comic Sans MS" font-size="11" lengthAdjust="spacingAndGlyphs" textLength="146" x="147" y="326.8452">_runAlgorithm(data, socket)</text><!--class RumorServer--><rect fill="#F8F8F8" filter="url(#f278qpx)" height="58.0518" style="stroke: #383838; stroke-width: 1.5;" width="158" x="334" y="276"/><text fill="#000000" font-family="Comic Sans MS" font-size="12" lengthAdjust="spacingAndGlyphs" textLength="75" x="375.5" y="294.2246">RumorServer</text><line style="stroke: #383838; stroke-width: 1.5;" x1="335" x2="491" y1="302.7227" y2="302.7227"/><line style="stroke: #383838; stroke-width: 1.5;" x1="335" x2="491" y1="310.7227" y2="310.7227"/><text fill="#000000" font-family="Comic Sans MS" font-size="11" lengthAdjust="spacingAndGlyphs" textLength="146" x="340" y="326.8452">_runAlgorithm(data, socket)</text><!--class EndpointParser--><rect fill="#F8F8F8" filter="url(#f278qpx)" height="42.7227" style="stroke: #383838; stroke-width: 1.5;" width="90" x="277" y="8.5"/><text fill="#000000" font-family="Comic Sans MS" font-size="12" lengthAdjust="spacingAndGlyphs" textLength="84" x="280" y="26.7246">EndpointParser</text><line style="stroke: #383838; stroke-width: 1.5;" x1="278" x2="366" y1="35.2227" y2="35.2227"/><line style="stroke: #383838; stroke-width: 1.5;" x1="278" x2="366" y1="43.2227" y2="43.2227"/><!--class GraphvizParser--><rect fill="#F8F8F8" filter="url(#f278qpx)" height="42.7227" style="stroke: #383838; stroke-width: 1.5;" width="91" x="402.75" y="8.5"/><text fill="#000000" font-family="Comic Sans MS" font-size="12" lengthAdjust="spacingAndGlyphs" textLength="85" x="405.75" y="26.7246">GraphvizParser</text><line style="stroke: #383838; stroke-width: 1.5;" x1="403.75" x2="492.75" y1="35.2227" y2="35.2227"/><line style="stroke: #383838; stroke-width: 1.5;" x1="403.75" x2="492.75" y1="43.2227" y2="43.2227"/><path d="M299.277,164 C310.997,164 322.717,164 334.437,164 " fill="none" style="stroke: #383838; stroke-width: 1.0;"/><path d="M105.3125,164 C117.11,164 128.907,164 140.704,164 " fill="none" style="stroke: #383838; stroke-width: 1.0;"/><path d="M179.729,200.79 C159.597,220.913 136.671,247.645 123,276 C105.4156,312.472 96.6214,356.731 92.2426,393.559 " fill="none" style="stroke: #383838; stroke-width: 1.0;"/><path d="M220,220.82 C220,239.693 220,259.967 220,275.774 " fill="none" style="stroke: #383838; stroke-width: 1.0;"/><polygon fill="none" points="213,220.796,220,200.796,227,220.796,213,220.796" style="stroke: #383838; stroke-width: 1.0;"/><path d="M285.705,212.322 C315.08,233.477 348.707,257.695 374.019,275.926 " fill="none" style="stroke: #383838; stroke-width: 1.0;"/><polygon fill="none" points="281.59,217.984,269.452,200.615,289.772,206.624,281.59,217.984" style="stroke: #383838; stroke-width: 1.0;"/><path d="M331.844,51.625 C339.526,67.722 350.54,90.799 360.552,111.776 " fill="none" style="stroke: #383838; stroke-width: 1.0;"/><path d="M438.156,51.625 C430.474,67.722 419.46,90.799 409.448,111.776 " fill="none" style="stroke: #383838; stroke-width: 1.0;"/></g></svg>